<?xml version="1.0" standalone="no"?>
<!DOCTYPE svg PUBLIC "-//W3C//DTD SVG 20010904//EN"
 "http://www.w3.org/TR/2001/REC-SVG-20010904/DTD/svg10.dtd">
<svg version="1.0" xmlns="http://www.w3.org/2000/svg"
 width="512.000000pt" height="512.000000pt" viewBox="0 0 512.000000 512.000000"
 preserveAspectRatio="xMidYMid meet">
<metadata>
Created by potrace 1.14, written by Peter Selinger 2001-2017
</metadata>
<g transform="translate(0.000000,512.000000) scale(0.100000,-0.100000)"
fill="#000000" stroke="none">
<path d="M3215 5100 c-89 -19 -167 -48 -235 -87 -60 -35 -160 -112 -167 -129
-2 -7 20 -38 50 -68 l55 -55 29 25 c122 108 268 164 430 166 49 0 115 -5 148
-12 78 -16 228 -90 284 -139 l45 -39 58 56 57 57 -37 36 c-90 86 -249 166
-387 194 -72 15 -251 12 -330 -5z"/>
<path d="M682 4944 c-68 -18 -123 -62 -156 -128 l-30 -58 -1 -431 c0 -238 3
-456 7 -485 15 -95 94 -184 177 -198 69 -11 66 -6 64 -96 -2 -95 8 -144 38
-182 42 -54 69 -60 259 -62 96 -1 180 -3 187 -3 8 -1 11 -147 11 -576 l0 -575
-36 0 c-103 -1 -173 -27 -224 -82 -49 -52 -61 -87 -66 -179 l-4 -87 -27 8
c-15 4 -122 7 -237 5 -233 -2 -253 -7 -319 -70 -20 -20 -46 -56 -56 -81 -19
-42 -20 -71 -20 -753 0 -703 0 -710 21 -758 26 -58 61 -98 115 -126 37 -20 56
-22 265 -24 208 -2 228 -1 270 18 53 24 84 51 115 100 32 49 38 91 39 244 l1
130 1475 1 c811 0 1480 -1 1486 -3 7 -3 11 -56 11 -151 1 -106 5 -158 16 -183
22 -54 76 -110 131 -135 47 -22 62 -23 257 -23 113 0 223 4 242 10 59 16 119
68 150 130 l28 55 0 705 c0 428 -4 717 -10 737 -22 74 -64 121 -140 155 -42
19 -66 22 -251 23 -113 0 -217 -2 -231 -6 l-27 -8 -4 87 c-5 95 -19 131 -72
184 -57 57 -105 73 -232 76 l-42 1 -31 128 c-18 70 -36 144 -42 164 l-10 37
-57 -1 c-31 0 -64 0 -73 1 -14 1 -15 44 -15 405 1 222 4 408 9 412 4 4 73 8
155 8 l147 1 40 158 c22 87 46 162 53 166 8 4 31 7 53 5 l39 -3 0 84 0 84
-267 0 c-148 0 -296 0 -330 1 l-63 0 0 165 0 165 -84 0 -83 0 0 -160 c1 -88
-2 -162 -5 -165 -2 -3 -152 -6 -331 -6 l-327 -1 3 -81 2 -82 49 -2 c27 -1 50
-4 52 -5 2 -2 5 -17 8 -33 3 -17 21 -88 39 -160 l33 -130 145 -2 c79 -1 149
-2 156 -2 9 -1 12 -100 12 -411 l0 -410 -27 -1 c-15 -1 -48 -1 -73 -1 l-47 0
-16 -62 c-10 -34 -18 -70 -20 -79 -4 -31 -20 -14 -58 63 l-37 75 -538 2 c-296
1 -549 2 -563 2 l-25 1 -1 410 0 410 36 1 c19 0 103 2 185 3 171 2 203 12 245
72 21 32 25 51 30 147 l5 110 30 4 c83 11 167 81 195 162 15 46 17 100 16 509
-2 503 -1 491 -65 564 -17 20 -53 46 -79 59 l-47 22 -779 1 c-543 1 -793 -2
-824 -10z"/>
<path d="M3270 4773 c-72 -18 -150 -57 -196 -97 l-37 -32 57 -57 57 -57 42 29
c116 79 274 80 384 1 l44 -32 54 55 c50 50 67 77 47 77 -4 0 -18 10 -32 23
-94 85 -284 126 -420 90z"/>
<path d="M3307 4453 c-2 -5 -4 -42 -5 -83 l0 -76 81 1 82 0 3 83 3 82 -80 0
c-44 0 -82 -3 -84 -7z"/>
</g>
</svg>
